<?xml version="1.0" encoding="iso-8859-1"?>
<!-- Generator: Adobe Illustrator 14.0.0, SVG Export Plug-In . SVG Version: 6.00 Build 43363)  -->
<!DOCTYPE svg PUBLIC "-//W3C//DTD SVG 1.1//EN" "http://www.w3.org/Graphics/SVG/1.1/DTD/svg11.dtd">
<svg version="1.1" id="icon-m-messaging-smiley-cool-layer"
	 xmlns="http://www.w3.org/2000/svg" xmlns:xlink="http://www.w3.org/1999/xlink" x="0px" y="0px" width="64px" height="64px"
	 viewBox="0 0 64 64" style="enable-background:new 0 0 64 64;" xml:space="preserve">
<g id="icon-m-messaging-smiley-cool">
	<rect style="fill:none;" width="64" height="64"/>
	<path style="fill:#333333;" d="M43.533,16.642c-1.123,0-2.363,0.079-3.574,0.263H23.961c-1.145-0.184-2.339-0.263-3.468-0.263
		c-4.139,0-7.494,3.013-7.494,6.733c0,3.72,3.355,6.73,7.494,6.73c3.946,0,8.722-4.553,9.164-8.201h4.092
		c0.498,3.648,5.854,8.201,9.783,8.201c4.124,0,7.467-3.011,7.467-6.73C51,19.654,47.657,16.642,43.533,16.642z"/>
	<path style="fill:#333333;" d="M50.398,36.341c-0.467,0.095-0.7,0.835-0.957,1.135c-4.413,5.171-10.605,8.657-17.441,8.97
		c-6.835-0.313-13.028-3.799-17.442-8.97c-0.256-0.3-0.489-1.04-0.957-1.135c-2.423-0.496-0.353,4.448-0.003,5.235
		c1.039,2.338,2.584,4.43,4.49,6.134C21.896,51.111,26.943,52.801,32,53c5.057-0.199,10.104-1.889,13.911-5.29
		c1.906-1.704,3.452-3.796,4.49-6.134C50.751,40.789,52.822,35.845,50.398,36.341z"/>
	<path style="fill:#333333;" d="M32,4c15.439,0,28,12.561,28,28S47.439,60,32,60S4,47.439,4,32S16.561,4,32,4 M32,0
		C14.327,0,0,14.327,0,32c0,17.674,14.327,32,32,32c17.674,0,32-14.326,32-32C64,14.327,49.674,0,32,0L32,0z"/>
</g>
</svg>
