<?xml version="1.0" encoding="iso-8859-1"?>
<!-- Generator: Adobe Illustrator 14.0.0, SVG Export Plug-In . SVG Version: 6.00 Build 43363)  -->
<!DOCTYPE svg PUBLIC "-//W3C//DTD SVG 1.1//EN" "http://www.w3.org/Graphics/SVG/1.1/DTD/svg11.dtd">
<svg version="1.1" id="icon-m-messaging-smiley-happy-layer"
	 xmlns="http://www.w3.org/2000/svg" xmlns:xlink="http://www.w3.org/1999/xlink" x="0px" y="0px" width="64px" height="64px"
	 viewBox="0 0 64 64" style="enable-background:new 0 0 64 64;" xml:space="preserve">
<g id="icon-m-messaging-smiley-happy">
	<rect style="fill:none;" width="64" height="64"/>
	<circle style="fill:#333333;" cx="21.403" cy="20.648" r="5"/>
	<circle style="fill:#333333;" cx="42.598" cy="20.648" r="5"/>
	<path style="fill:#333333;" d="M32,44.084c-10.326,0-18.904-6.591-20.664-16.411C11.119,28.883,11,30.125,11,31.398
		c0,11.598,9.401,19.249,21,19.249s21-7.651,21-19.249c0-1.273-0.119-2.516-0.336-3.726C50.905,37.493,42.326,44.084,32,44.084z"/>
	<path style="fill:#333333;" d="M32,4c15.439,0,28,12.561,28,28S47.439,60,32,60S4,47.439,4,32S16.561,4,32,4 M32,0
		C14.327,0,0,14.326,0,32s14.327,32,32,32c17.674,0,32-14.326,32-32S49.674,0,32,0L32,0z"/>
</g>
</svg>
