<?xml version="1.0" encoding="UTF-8" standalone="no"?>
<!-- Generator: Adobe Illustrator 14.0.0, SVG Export Plug-In . SVG Version: 6.00 Build 43363)  -->

<svg
   xmlns:dc="http://purl.org/dc/elements/1.1/"
   xmlns:cc="http://creativecommons.org/ns#"
   xmlns:rdf="http://www.w3.org/1999/02/22-rdf-syntax-ns#"
   xmlns:svg="http://www.w3.org/2000/svg"
   xmlns="http://www.w3.org/2000/svg"
   xmlns:xlink="http://www.w3.org/1999/xlink"
   xmlns:sodipodi="http://sodipodi.sourceforge.net/DTD/sodipodi-0.dtd"
   xmlns:inkscape="http://www.inkscape.org/namespaces/inkscape"
   version="1.1"
   id="icon-l-camera-layer"
   x="0px"
   y="0px"
   width="48px"
   height="48px"
   viewBox="0 0 48 48"
   style="enable-background:new 0 0 48 48;"
   xml:space="preserve"
   inkscape:version="0.47 r22583"
   sodipodi:docname="icon-l-widgetsgallery.svg"
   inkscape:export-filename="/home/tigert/Dropbox/Work/HarmattanTheming/icon-l-widgetsgallery.png"
   inkscape:export-xdpi="90"
   inkscape:export-ydpi="90"><metadata
   id="metadata71"><rdf:RDF><cc:Work
       rdf:about=""><dc:format>image/svg+xml</dc:format><dc:type
         rdf:resource="http://purl.org/dc/dcmitype/StillImage" /><dc:title></dc:title></cc:Work></rdf:RDF></metadata><defs
   id="defs69"><linearGradient
     inkscape:collect="always"
     id="linearGradient3741"><stop
       style="stop-color:black;stop-opacity:1;"
       offset="0"
       id="stop3743" /><stop
       id="stop3749"
       offset="0.52247095"
       style="stop-color:black;stop-opacity:0.90980392;" /><stop
       style="stop-color:black;stop-opacity:0;"
       offset="1"
       id="stop3745" /></linearGradient><linearGradient
     inkscape:collect="always"
     id="linearGradient3703"><stop
       style="stop-color:#e4dfc5;stop-opacity:1"
       offset="0"
       id="stop3705" /><stop
       style="stop-color:#bdb99d;stop-opacity:1"
       offset="1"
       id="stop3707" /></linearGradient><linearGradient
     inkscape:collect="always"
     id="linearGradient3680"><stop
       style="stop-color:#1c3d6f;stop-opacity:1"
       offset="0"
       id="stop3682" /><stop
       style="stop-color:#b6cce4;stop-opacity:1"
       offset="1"
       id="stop3684" /></linearGradient><inkscape:perspective
     sodipodi:type="inkscape:persp3d"
     inkscape:vp_x="0 : 24 : 1"
     inkscape:vp_y="0 : 1000 : 0"
     inkscape:vp_z="48 : 24 : 1"
     inkscape:persp3d-origin="24 : 16 : 1"
     id="perspective73" /><linearGradient
     inkscape:collect="always"
     xlink:href="#linearGradient3703"
     id="linearGradient3709"
     x1="31.667896"
     y1="5.9612784"
     x2="34.184479"
     y2="62.918034"
     gradientUnits="userSpaceOnUse" /><linearGradient
     inkscape:collect="always"
     xlink:href="#linearGradient3680"
     id="linearGradient3713"
     gradientUnits="userSpaceOnUse"
     x1="26.150957"
     y1="40.069859"
     x2="26.150957"
     y2="6.4602675" /><linearGradient
     inkscape:collect="always"
     xlink:href="#linearGradient3680"
     id="linearGradient3717"
     gradientUnits="userSpaceOnUse"
     x1="26.150957"
     y1="40.069859"
     x2="26.241892"
     y2="-27.304182" /><radialGradient
     inkscape:collect="always"
     xlink:href="#linearGradient3741"
     id="radialGradient3747"
     cx="24.219124"
     cy="46.213627"
     fx="24.219124"
     fy="46.213627"
     r="18.82932"
     gradientTransform="matrix(0.9697085,0,0,0.06159482,0.73363371,43.367107)"
     gradientUnits="userSpaceOnUse" /><inkscape:perspective
     id="perspective3759"
     inkscape:persp3d-origin="0.5 : 0.33333333 : 1"
     inkscape:vp_z="1 : 0.5 : 1"
     inkscape:vp_y="0 : 1000 : 0"
     inkscape:vp_x="0 : 0.5 : 1"
     sodipodi:type="inkscape:persp3d" /></defs><sodipodi:namedview
   pagecolor="#ffffff"
   bordercolor="#666666"
   borderopacity="1"
   objecttolerance="10"
   gridtolerance="10"
   guidetolerance="10"
   inkscape:pageopacity="0"
   inkscape:pageshadow="2"
   inkscape:window-width="1419"
   inkscape:window-height="1240"
   id="namedview67"
   showgrid="true"
   inkscape:zoom="1"
   inkscape:cx="21.35958"
   inkscape:cy="24.676399"
   inkscape:window-x="363"
   inkscape:window-y="132"
   inkscape:window-maximized="0"
   inkscape:current-layer="icon-l-camera-layer"
   inkscape:snap-bbox="true"
   inkscape:snap-nodes="false"><inkscape:grid
     type="xygrid"
     id="grid2879"
     empspacing="5"
     visible="true"
     enabled="true"
     snapvisiblegridlinesonly="true"
     color="#64649b"
     opacity="0.0627451"
     empcolor="#7a7a85"
     empopacity="0.1372549" /></sodipodi:namedview>

<path
   sodipodi:type="arc"
   style="opacity:0.29569892;color:black;fill:url(#radialGradient3747);fill-opacity:1;fill-rule:nonzero;stroke:none;stroke-width:0.76312380999999985;marker:none;visibility:visible;display:inline;overflow:visible;enable-background:accumulate"
   id="path3739"
   sodipodi:cx="24.219124"
   sodipodi:cy="46.213627"
   sodipodi:rx="18.447758"
   sodipodi:ry="1.1680144"
   d="m 42.666882,46.213627 a 18.447758,1.1680144 0 1 1 -36.8955159,0 18.447758,1.1680144 0 1 1 36.8955159,0 z"
   transform="matrix(1.0841426,0,0,2.996539,-2.256984,-93.980934)" /><g
   id="g3729"><path
     style="fill:#c17d11;stroke:#8f5902;stroke-width:1.01132107px;stroke-linecap:butt;stroke-linejoin:round;stroke-opacity:1"
     d="M 23.4375,1.5078125 C 22.569582,1.5578746 21.697555,1.9552321 21.5625,3 l -9,43.40625 3.9375,0 7.25,-35.34375 7.28125,35.34375 3.9375,0 -9,-43.40625 c -0.152741,-1.1815828 -1.212525,-1.5599382 -2.1875,-1.4921875 -0.01117,-9.048e-4 -0.02005,7.664e-4 -0.03125,0 -0.111978,-0.00766 -0.199783,-0.0065 -0.3125,0 z"
     id="path3725"
     transform="matrix(1,0,0,0.97773672,0,0.03315527)"
     sodipodi:nodetypes="ccccccccssc" /><path
     sodipodi:type="inkscape:offset"
     inkscape:radius="-1.0151668"
     inkscape:original="M 23.4375 1.4375 C 22.569582 1.4875621 21.697555 1.9552321 21.5625 3 L 12.5625 46.40625 L 16.5 46.40625 L 23.75 11.0625 L 31.03125 46.40625 L 34.96875 46.40625 L 25.96875 3 C 25.816009 1.8184172 24.756225 1.3697493 23.78125 1.4375 C 23.77008 1.4365952 23.7612 1.4382664 23.75 1.4375 C 23.638022 1.42984 23.550217 1.431 23.4375 1.4375 z "
     style="opacity:0.20967742;fill:none;stroke:white;stroke-width:1.01132107px;stroke-linecap:butt;stroke-linejoin:round;stroke-opacity:1"
     id="path3779"
     d="M 23.5,2.4375 C 23.227959,2.4531915 22.990261,2.5479722 22.84375,2.65625 22.697239,2.7645278 22.596882,2.8590218 22.5625,3.125 a 1.0152683,1.0152683 0 0 1 0,0.09375 l -8.75,42.1875 1.84375,0 7.09375,-34.5625 a 1.0152683,1.0152683 0 0 1 2,0 l 7.125,34.5625 1.84375,0 -8.75,-42.1875 a 1.0152683,1.0152683 0 0 1 0,-0.09375 C 24.928556,2.8140622 24.836954,2.7369172 24.65625,2.625 24.475546,2.5130828 24.151262,2.4161311 23.84375,2.4375 a 1.0152683,1.0152683 0 0 1 -0.15625,0 c -0.06897,-0.00472 -0.0981,-0.00516 -0.1875,0 z"
     transform="matrix(1,0,0,0.97773672,0,0.03315527)" /><rect
     style="color:black;fill:#c17d11;fill-opacity:1;fill-rule:nonzero;stroke:#8f5902;stroke-width:0.58153248px;stroke-linecap:butt;stroke-linejoin:round;stroke-miterlimit:4;stroke-opacity:1;stroke-dasharray:none;stroke-dashoffset:0;marker:none;visibility:visible;display:inline;overflow:visible;enable-background:accumulate"
     id="rect3764"
     width="10.625"
     height="3.4375"
     x="-3.6875"
     y="-2.125"
     transform="matrix(2.5411765,0,0,1.1636363,19.870588,37.972727)" /><rect
     transform="matrix(2.3529412,0,0,0.58181802,20.17647,37.736363)"
     y="-2.125"
     x="-3.6875"
     height="3.4375"
     width="10.625"
     id="rect3785"
     style="opacity:0.17204303;color:black;fill:none;stroke:white;stroke-width:0.85467476px;stroke-linecap:butt;stroke-linejoin:round;stroke-miterlimit:4;stroke-opacity:1;stroke-dasharray:none;stroke-dashoffset:0;marker:none;visibility:visible;display:inline;overflow:visible;enable-background:accumulate" /></g><rect
   style="color:black;fill:url(#linearGradient3709);fill-opacity:1;fill-rule:nonzero;stroke:#938673;stroke-width:1.2048291;stroke-miterlimit:4;stroke-opacity:1;stroke-dasharray:none;marker:none;visibility:visible;display:inline;overflow:visible;enable-background:accumulate"
   id="rect2902"
   width="45"
   height="43"
   x="2"
   y="3"
   transform="matrix(0.95555555,0,0,0.72093023,0.588889,2.3372094)"
   rx="2.0930235"
   ry="2.7741935" /><rect
   ry="0"
   rx="0"
   transform="matrix(0.77777777,0,0,0.53488372,4.9444447,6.8953489)"
   y="3"
   x="2"
   height="43"
   width="45"
   id="rect3676"
   style="color:black;fill:none;stroke:#938673;stroke-width:1.55039573;stroke-miterlimit:4;stroke-opacity:1;stroke-dasharray:none;marker:none;visibility:visible;display:inline;overflow:visible;enable-background:accumulate" /><rect
   ry="1.4373845"
   rx="1.2902043"
   transform="matrix(0.91111111,0,0,0.6744186,1.6777777,3.4767443)"
   y="3"
   x="2"
   height="43"
   width="45"
   id="rect3678"
   style="opacity:0.33333333;color:black;fill:none;stroke:white;stroke-width:1.27570295;stroke-miterlimit:4;stroke-opacity:1;stroke-dasharray:none;marker:none;visibility:visible;display:inline;overflow:visible;enable-background:accumulate" /><rect
   style="color:black;fill:url(#linearGradient3713);fill-opacity:1;fill-rule:nonzero;stroke:none;stroke-width:1.56752777;marker:none;visibility:visible;display:inline;overflow:visible;enable-background:accumulate"
   id="rect3711"
   width="45"
   height="43"
   x="2"
   y="3"
   transform="matrix(0.75555556,0,0,-0.51162791,5.4888888,32.534884)"
   rx="0"
   ry="0" /><rect
   ry="0"
   rx="0"
   transform="matrix(0.75555556,0,0,0.1627907,5.4888888,23.511628)"
   y="3"
   x="2"
   height="43"
   width="45"
   id="rect3715"
   style="color:black;fill:url(#linearGradient3717);fill-opacity:1;fill-rule:nonzero;stroke:none;stroke-width:1.56752777;marker:none;visibility:visible;display:inline;overflow:visible;enable-background:accumulate" /><path
   style="fill:#1c3d6f;fill-opacity:1;stroke:none"
   d="m 12.168747,25.051955 c 0,0 7.616981,0.13741 8.168446,-2.473446 0.422079,-1.998292 1.511548,1.580255 2.404735,1.580255 0.893188,0 3.847577,-6.664553 5.015592,-5.771365 1.168014,0.893187 2.404735,5.977485 4.740764,5.496538 2.336029,-0.480947 3.229217,-2.954389 4.259818,-3.023096 1.030601,-0.06871 4.122543,2.198615 4.122543,2.198615 0,0 -1.43e-4,1.923789 -1.43e-4,1.923789 l -28.711755,0.06871 z"
   id="path3721"
   sodipodi:nodetypes="csssssscc"
   transform="matrix(1.0020308,0,0,1,-0.03237036,-1)" /><path
   transform="matrix(1.0020308,0,0,-0.59275232,-0.03237036,38.850343)"
   sodipodi:nodetypes="csssssscc"
   id="path3723"
   d="m 12.168747,25.051955 c 0,0 7.616981,0.13741 8.168446,-2.473446 0.422079,-1.998292 1.511548,1.580255 2.404735,1.580255 0.893188,0 3.847577,-6.664553 5.015592,-5.771365 1.168014,0.893187 2.404735,5.977485 4.740764,5.496538 2.336029,-0.480947 3.229217,-2.954389 4.259818,-3.023096 1.030601,-0.06871 4.122543,2.198615 4.122543,2.198615 0,0 -1.43e-4,1.923789 -1.43e-4,1.923789 l -28.711755,0.06871 z"
   style="opacity:0.3064516;fill:#1c3d6f;fill-opacity:1;stroke:none" /><rect
   style="color:black;fill:#eeeeec;stroke:#888a85;stroke-width:1.51167333px;stroke-linecap:butt;stroke-linejoin:round;stroke-miterlimit:4;stroke-opacity:1;stroke-dasharray:none;stroke-dashoffset:0;marker:none;visibility:visible;display:inline;overflow:visible;enable-background:accumulate"
   id="rect3787"
   width="18.125"
   height="7.3125"
   x="11.5"
   y="12.25"
   transform="matrix(1.6,0,0,0.27350428,-8.9000001,10.149572)"
   rx="0.7421875"
   ry="4.3417969" /><rect
   ry="1.0854492"
   rx="2.3914931"
   transform="matrix(0.49655172,0,0,1.0940171,3.7896552,7.0982906)"
   y="12.25"
   x="11.5"
   height="7.3125"
   width="18.125"
   id="rect3789"
   style="color:black;fill:#eeeeec;stroke:#888a85;stroke-width:1.35676837px;stroke-linecap:butt;stroke-linejoin:round;stroke-miterlimit:4;stroke-opacity:1;stroke-dasharray:none;stroke-dashoffset:0;marker:none;visibility:visible;display:inline;overflow:visible;enable-background:accumulate" /><path
   style="color:black;fill:black;fill-opacity:1;fill-rule:nonzero;stroke:none;stroke-width:1px;marker:none;visibility:visible;display:inline;overflow:visible;enable-background:accumulate"
   id="path3791"
   d="m 12.547403,23.132452 c 0.111387,0.0588 0.228348,0.108088 0.334162,0.176415 1.283835,0.829019 2.155681,1.949498 3.008449,3.18883 0.273909,0.154783 -0.366185,0.07443 -0.515525,-0.01066 -0.09727,-0.05542 -0.07954,-0.212287 -0.08899,-0.323833 -0.04013,-0.473655 0.02459,-1.173102 0.09815,-1.622812 0.05202,-0.318072 0.135796,-0.630131 0.203693,-0.945196 0.101335,-0.289936 0.183905,-0.587129 0.304006,-0.869808 0.246376,-0.579895 0.596088,-1.206383 1.156277,-1.542639 0.1167,-0.07005 0.242639,-0.160606 0.378541,-0.153098 0.266799,0.01474 0.514523,0.144435 0.771784,0.216652 0.0461,0.05724 -0.763397,0.709178 -0.809496,0.651938 l 0,0 c 0.204779,0.02197 0.408639,0.05564 0.614337,0.06591 0.02179,0.0011 0.06152,-0.05371 0.05686,-0.0324 -0.01549,0.0709 -0.06457,0.130086 -0.09282,0.196932 -0.248548,0.588127 -0.459385,1.192845 -0.617905,1.811622 -0.675394,2.640573 0.237901,-0.966268 -0.405102,1.692806 -0.07175,0.296707 -0.317213,1.390362 -0.579066,1.614842 -0.751718,0.644432 -0.988167,0.434421 -1.700581,0.234642 -0.213071,-0.148531 -0.443716,-0.274592 -0.639213,-0.445593 -0.500347,-0.437653 -0.972189,-1.037974 -1.338304,-1.585812 -0.177072,-0.264962 -0.323203,-0.549343 -0.484313,-0.824303 -0.367899,-0.627882 -0.229049,-0.36642 -0.474295,-0.858883 -0.04494,-0.05794 0.774409,-0.693489 0.81935,-0.635552 z"
   transform="matrix(0.81102663,0.32358078,-0.31447943,0.83449854,8.9221808,-1.1621159)" /><rect
   ry="3.65625"
   rx="9.0625"
   transform="matrix(0.33103448,0,0,0.82051283,25.193103,1.4487178)"
   y="12.25"
   x="11.5"
   height="7.3125"
   width="18.125"
   id="rect3793"
   style="color:black;fill:#eeeeec;stroke:#888a85;stroke-width:1.91876018px;stroke-linecap:butt;stroke-linejoin:round;stroke-miterlimit:4;stroke-opacity:1;stroke-dasharray:none;stroke-dashoffset:0;marker:none;visibility:visible;display:inline;overflow:visible;enable-background:accumulate" /></svg>