<?xml version="1.0" encoding="iso-8859-1"?>
<!-- Generator: Adobe Illustrator 14.0.0, SVG Export Plug-In . SVG Version: 6.00 Build 43363)  -->
<!DOCTYPE svg PUBLIC "-//W3C//DTD SVG 1.1//EN" "http://www.w3.org/Graphics/SVG/1.1/DTD/svg11.dtd">
<svg version="1.1" id="icon-m-message-send-receive-layer"
	 xmlns="http://www.w3.org/2000/svg" xmlns:xlink="http://www.w3.org/1999/xlink" x="0px" y="0px" width="64px" height="64px"
	 viewBox="0 0 64 64" style="enable-background:new 0 0 64 64;" xml:space="preserve">
<symbol  id="background_x5F_64" viewBox="-31.999 -32 63.999 64">
	<polygon style="fill:none;" points="32,-32 -32,-32 -32,32 32,32 	"/>
</symbol>
<g id="icon-m-message-send-receive_1_">
	
		<use xlink:href="#background_x5F_64"  width="63.999" height="64" id="background_x5F_64_157_" x="-31.999" y="-32" transform="matrix(1 0 0 -1 32 32)" style="overflow:visible;"/>
	<g>
		<path style="fill:#000000;" d="M40.979,13.527v-0.252c0-3.078-2.504-5.613-5.527-5.613H5.543C2.498,7.662,0,10.197,0,13.275v0.252
			l20.492,9.107L40.979,13.527z M44.486,17.51c-5.715,0-10.84,2.461-14.408,6.357l-8.977,3.98l-0.609,0.262l-0.619-0.262L0,19.033
			v12.428c0,3.107,2.498,5.623,5.543,5.623h19.434c0.078,10.641,8.779,19.256,19.51,19.256C55.256,56.34,64,47.648,64,36.938
			C64,26.211,55.256,17.51,44.486,17.51z M26.619,37.217l0.059-0.053h4.965c-0.004-0.092-0.014-0.172-0.014-0.264
			c0.002-7.156,5.803-12.959,12.963-12.963c2.635,0,5.08,0.793,7.125,2.143l-3.068,3.07c-1.213-0.637-2.592-1.004-4.057-1.006
			c-4.838,0.008-8.748,3.918-8.758,8.756c0,0.09,0.02,0.174,0.021,0.264h6.469l0.057,0.053L34.5,44.52L26.619,37.217z
			 M57.535,37.164c-0.143,7.035-5.873,12.693-12.943,12.697c-2.258-0.002-4.379-0.582-6.227-1.596l3.172-3.172
			c0.953,0.354,1.979,0.559,3.055,0.561c4.746-0.008,8.592-3.777,8.74-8.49h-5.83l-0.057-0.055l7.881-7.301l7.881,7.301
			l-0.057,0.055H57.535z"/>
	</g>
</g>
</svg>
